<mxfile host="app.diagrams.net" modified="2024-03-21T10:02:47.327Z" agent="Mozilla/5.0 (Windows NT 10.0; Win64; x64) AppleWebKit/537.36 (KHTML, like Gecko) Chrome/122.0.0.0 Safari/537.36" etag="jkpFRdwZti-7cgOvW94B" version="24.0.7" type="device">
  <diagram name="Page-1" id="RO6wWbEDTvjJD6k9kGkK">
    <mxGraphModel dx="936" dy="511" grid="1" gridSize="10" guides="1" tooltips="1" connect="1" arrows="1" fold="1" page="1" pageScale="1" pageWidth="827" pageHeight="1169" math="0" shadow="0">
      <root>
        <mxCell id="0" />
        <mxCell id="1" parent="0" />
        <mxCell id="FHhUy-Q9OWQWM8c3zRxM-21" value="Doctor" style="swimlane;childLayout=stackLayout;horizontal=1;startSize=50;horizontalStack=0;rounded=1;fontSize=14;fontStyle=0;strokeWidth=2;resizeParent=0;resizeLast=1;shadow=0;dashed=0;align=center;arcSize=4;whiteSpace=wrap;html=1;" vertex="1" parent="1">
          <mxGeometry x="200" y="120" width="160" height="201" as="geometry" />
        </mxCell>
        <mxCell id="FHhUy-Q9OWQWM8c3zRxM-22" value="&lt;b&gt;&lt;font style=&quot;font-size: 12px;&quot;&gt;&lt;u&gt;PK &lt;/u&gt;ID&lt;/font&gt;&lt;/b&gt;&lt;span style=&quot;white-space: pre;&quot;&gt;&lt;span style=&quot;white-space: pre;&quot;&gt;&lt;b&gt;&#x9;&lt;span style=&quot;white-space: pre;&quot;&gt;&#x9;&lt;/span&gt;&lt;/b&gt;&lt;/span&gt;&lt;/span&gt;varchar(10)&lt;div&gt;&lt;b&gt;name &lt;span style=&quot;white-space: pre;&quot;&gt;&#x9;&lt;span style=&quot;white-space: pre;&quot;&gt;&#x9;&lt;/span&gt;&lt;/span&gt;&lt;/b&gt;varchar(50)&lt;/div&gt;&lt;div&gt;&lt;b&gt;speciliaze &lt;span style=&quot;white-space: pre;&quot;&gt;&#x9;&lt;/span&gt;&lt;/b&gt;varchar(20)&lt;/div&gt;&lt;div&gt;&lt;br&gt;&lt;/div&gt;&lt;div&gt;&lt;b&gt;yearsOf&lt;/b&gt;&lt;/div&gt;&lt;div&gt;&lt;b&gt;Experince&lt;span style=&quot;white-space: pre;&quot;&gt;&#x9;&lt;/span&gt;&lt;/b&gt;int&lt;/div&gt;&lt;div&gt;&lt;br&gt;&lt;/div&gt;&lt;div&gt;&lt;b&gt;age &lt;span style=&quot;white-space: pre;&quot;&gt;&#x9;&lt;/span&gt;&lt;span style=&quot;white-space: pre;&quot;&gt;&#x9;&lt;/span&gt;&lt;span style=&quot;white-space: pre;&quot;&gt;&#x9;&lt;/span&gt;&lt;/b&gt;int&amp;nbsp;&lt;/div&gt;&lt;div&gt;&lt;b&gt;salary&lt;span style=&quot;white-space: pre;&quot;&gt;&#x9;&lt;/span&gt;&lt;span style=&quot;white-space: pre;&quot;&gt;&#x9;&lt;/span&gt;i&lt;/b&gt;nt&amp;nbsp;&amp;nbsp;&lt;/div&gt;&lt;div&gt;&lt;br&gt;&lt;/div&gt;" style="align=left;strokeColor=none;fillColor=none;spacingLeft=4;fontSize=12;verticalAlign=top;resizable=0;rotatable=0;part=1;html=1;" vertex="1" parent="FHhUy-Q9OWQWM8c3zRxM-21">
          <mxGeometry y="50" width="160" height="151" as="geometry" />
        </mxCell>
        <mxCell id="FHhUy-Q9OWQWM8c3zRxM-24" value="Patient" style="swimlane;childLayout=stackLayout;horizontal=1;startSize=50;horizontalStack=0;rounded=1;fontSize=14;fontStyle=0;strokeWidth=2;resizeParent=0;resizeLast=1;shadow=0;dashed=0;align=center;arcSize=4;whiteSpace=wrap;html=1;" vertex="1" parent="1">
          <mxGeometry x="480" y="130" width="160" height="150" as="geometry" />
        </mxCell>
        <mxCell id="FHhUy-Q9OWQWM8c3zRxM-25" value="&lt;font style=&quot;font-size: 12px;&quot;&gt;&lt;b style=&quot;text-decoration-line: underline;&quot;&gt;PK&lt;/b&gt;&amp;nbsp; &amp;nbsp; &lt;b&gt;pID&lt;/b&gt;&lt;/font&gt;&amp;nbsp;&lt;span style=&quot;white-space: pre;&quot;&gt;&lt;span style=&quot;white-space: pre;&quot;&gt;&#x9;&lt;/span&gt;&lt;/span&gt;varchar(10)&lt;div&gt;&lt;b&gt;name &lt;span style=&quot;white-space: pre;&quot;&gt;&#x9;&lt;span style=&quot;white-space: pre;&quot;&gt;&#x9;&lt;/span&gt;&lt;/span&gt;&lt;/b&gt;varchar(50)&lt;/div&gt;&lt;div&gt;&lt;b&gt;phone&amp;nbsp;&lt;span style=&quot;white-space: pre;&quot;&gt;&#x9;&lt;/span&gt;&lt;span style=&quot;white-space: pre;&quot;&gt;&#x9;&lt;/span&gt;&lt;/b&gt;varchar(10)&lt;/div&gt;&lt;div&gt;&lt;b&gt;gender&lt;/b&gt;&lt;span style=&quot;font-weight: bold; white-space: pre;&quot;&gt;&#x9;&lt;/span&gt;&lt;span style=&quot;font-weight: bold; white-space: pre;&quot;&gt;&#x9;&lt;/span&gt;char&lt;/div&gt;&lt;div&gt;&lt;b style=&quot;background-color: initial;&quot;&gt;FK&amp;nbsp;&lt;/b&gt;&lt;b style=&quot;background-color: initial;&quot;&gt;doctorID&lt;/b&gt;&lt;span style=&quot;background-color: initial; white-space-collapse: preserve;&quot;&gt;&lt;b&gt;&#x9;&lt;/b&gt;&lt;/span&gt;&lt;span style=&quot;background-color: initial;&quot;&gt;varchar(10)&lt;/span&gt;&lt;br&gt;&lt;/div&gt;&lt;div&gt;&lt;br&gt;&lt;/div&gt;" style="align=left;strokeColor=none;fillColor=none;spacingLeft=4;fontSize=12;verticalAlign=top;resizable=0;rotatable=0;part=1;html=1;" vertex="1" parent="FHhUy-Q9OWQWM8c3zRxM-24">
          <mxGeometry y="50" width="160" height="100" as="geometry" />
        </mxCell>
        <mxCell id="FHhUy-Q9OWQWM8c3zRxM-26" value="&lt;br&gt;&lt;b style=&quot;color: rgb(0, 0, 0); font-family: Helvetica; font-size: 12px; font-style: normal; font-variant-ligatures: normal; font-variant-caps: normal; letter-spacing: normal; orphans: 2; text-align: left; text-indent: 0px; text-transform: none; widows: 2; word-spacing: 0px; -webkit-text-stroke-width: 0px; white-space: nowrap; background-color: initial; text-decoration-thickness: initial; text-decoration-style: initial; text-decoration-color: initial;&quot;&gt;doctorID:ID&lt;/b&gt;&lt;div&gt;&lt;br&gt;&lt;/div&gt;" style="edgeStyle=orthogonalEdgeStyle;rounded=0;orthogonalLoop=1;jettySize=auto;html=1;exitX=0;exitY=0.75;exitDx=0;exitDy=0;entryX=1.01;entryY=0.682;entryDx=0;entryDy=0;entryPerimeter=0;" edge="1" parent="1" source="FHhUy-Q9OWQWM8c3zRxM-25" target="FHhUy-Q9OWQWM8c3zRxM-22">
          <mxGeometry relative="1" as="geometry" />
        </mxCell>
        <mxCell id="FHhUy-Q9OWQWM8c3zRxM-28" value="ِِAppointments" style="swimlane;childLayout=stackLayout;horizontal=1;startSize=50;horizontalStack=0;rounded=1;fontSize=14;fontStyle=0;strokeWidth=2;resizeParent=0;resizeLast=1;shadow=0;dashed=0;align=center;arcSize=4;whiteSpace=wrap;html=1;" vertex="1" parent="1">
          <mxGeometry x="220" y="390" width="160" height="150" as="geometry" />
        </mxCell>
        <mxCell id="FHhUy-Q9OWQWM8c3zRxM-29" value="&lt;div&gt;&lt;div&gt;&lt;b&gt;time&amp;nbsp;&lt;span style=&quot;white-space-collapse: preserve;&quot;&gt;&#x9;&lt;/span&gt;&lt;span style=&quot;white-space-collapse: preserve;&quot;&gt;&#x9;&lt;/span&gt;&lt;/b&gt;datetime&lt;/div&gt;&lt;div&gt;&lt;b&gt;department&lt;/b&gt;&lt;span style=&quot;font-weight: bold; white-space: pre;&quot;&gt;&#x9;&lt;/span&gt;varchar(30)&lt;/div&gt;&lt;div&gt;&lt;b&gt;&lt;u&gt;FK&amp;nbsp;&lt;/u&gt;doctorID&lt;/b&gt;&amp;nbsp; &amp;nbsp;varchar(10)&lt;div&gt;&lt;b&gt;&lt;u&gt;FK&amp;nbsp;&lt;/u&gt;patientID&amp;nbsp;&lt;span style=&quot;white-space-collapse: preserve;&quot;&gt;&#x9;&lt;/span&gt;&lt;/b&gt;&lt;span style=&quot;background-color: initial;&quot;&gt;varchar(10)&lt;/span&gt;&lt;/div&gt;&lt;div&gt;&lt;/div&gt;&lt;/div&gt;&lt;/div&gt;&lt;div&gt;&lt;br&gt;&lt;/div&gt;" style="align=left;strokeColor=none;fillColor=none;spacingLeft=4;fontSize=12;verticalAlign=top;resizable=0;rotatable=0;part=1;html=1;" vertex="1" parent="FHhUy-Q9OWQWM8c3zRxM-28">
          <mxGeometry y="50" width="160" height="100" as="geometry" />
        </mxCell>
        <mxCell id="FHhUy-Q9OWQWM8c3zRxM-30" value="&lt;b&gt;doctorID:ID&lt;/b&gt;" style="edgeStyle=orthogonalEdgeStyle;rounded=0;orthogonalLoop=1;jettySize=auto;html=1;exitX=0.25;exitY=0;exitDx=0;exitDy=0;entryX=0.385;entryY=1.006;entryDx=0;entryDy=0;entryPerimeter=0;" edge="1" parent="1" source="FHhUy-Q9OWQWM8c3zRxM-28" target="FHhUy-Q9OWQWM8c3zRxM-22">
          <mxGeometry relative="1" as="geometry" />
        </mxCell>
        <mxCell id="FHhUy-Q9OWQWM8c3zRxM-31" value="&lt;b&gt;patientID:pID&lt;/b&gt;" style="edgeStyle=orthogonalEdgeStyle;rounded=0;orthogonalLoop=1;jettySize=auto;html=1;exitX=1;exitY=0;exitDx=0;exitDy=0;entryX=0.25;entryY=1;entryDx=0;entryDy=0;" edge="1" parent="1" source="FHhUy-Q9OWQWM8c3zRxM-29" target="FHhUy-Q9OWQWM8c3zRxM-25">
          <mxGeometry relative="1" as="geometry">
            <Array as="points">
              <mxPoint x="440" y="440" />
              <mxPoint x="440" y="360" />
              <mxPoint x="520" y="360" />
            </Array>
          </mxGeometry>
        </mxCell>
        <mxCell id="FHhUy-Q9OWQWM8c3zRxM-32" value="File Patient" style="swimlane;childLayout=stackLayout;horizontal=1;startSize=50;horizontalStack=0;rounded=1;fontSize=14;fontStyle=0;strokeWidth=2;resizeParent=0;resizeLast=1;shadow=0;dashed=0;align=center;arcSize=4;whiteSpace=wrap;html=1;" vertex="1" parent="1">
          <mxGeometry x="600" y="350" width="160" height="150" as="geometry" />
        </mxCell>
        <mxCell id="FHhUy-Q9OWQWM8c3zRxM-33" value="&lt;div&gt;&lt;b style=&quot;background-color: initial;&quot;&gt;blood type&amp;nbsp; &amp;nbsp;&lt;span style=&quot;white-space-collapse: preserve;&quot;&gt;&#x9;&lt;/span&gt;&lt;/b&gt;&lt;span style=&quot;background-color: initial;&quot;&gt;varchar(4)&lt;/span&gt;&lt;br&gt;&lt;/div&gt;&lt;div&gt;&lt;div&gt;&lt;span style=&quot;background-color: initial;&quot;&gt;&lt;b&gt;prescription&amp;nbsp; &amp;nbsp;&lt;/b&gt;&lt;/span&gt;varchar(100)&lt;/div&gt;&lt;div&gt;&lt;b&gt;age &lt;/b&gt;:&lt;span style=&quot;white-space: pre;&quot;&gt;&#x9;&lt;/span&gt;&lt;span style=&quot;white-space: pre;&quot;&gt;&#x9;&lt;/span&gt;int&amp;nbsp;&lt;/div&gt;&lt;/div&gt;&lt;div&gt;&lt;div&gt;&lt;b&gt;&lt;u&gt;FK&amp;nbsp;&lt;/u&gt;patientID&amp;nbsp;&lt;span style=&quot;white-space-collapse: preserve;&quot;&gt;&#x9;&lt;/span&gt;&lt;/b&gt;&lt;span style=&quot;background-color: initial;&quot;&gt;varchar(10)&lt;/span&gt;&lt;/div&gt;&lt;div&gt;&lt;span style=&quot;background-color: initial;&quot;&gt;&lt;br&gt;&lt;/span&gt;&lt;/div&gt;&lt;div&gt;&lt;/div&gt;&lt;/div&gt;" style="align=left;strokeColor=none;fillColor=none;spacingLeft=4;fontSize=12;verticalAlign=top;resizable=0;rotatable=0;part=1;html=1;" vertex="1" parent="FHhUy-Q9OWQWM8c3zRxM-32">
          <mxGeometry y="50" width="160" height="100" as="geometry" />
        </mxCell>
        <mxCell id="FHhUy-Q9OWQWM8c3zRxM-34" value="&lt;b&gt;patientID:pID&lt;/b&gt;" style="edgeStyle=orthogonalEdgeStyle;rounded=0;orthogonalLoop=1;jettySize=auto;html=1;exitX=0.25;exitY=0;exitDx=0;exitDy=0;entryX=0.802;entryY=1.026;entryDx=0;entryDy=0;entryPerimeter=0;" edge="1" parent="1" source="FHhUy-Q9OWQWM8c3zRxM-32" target="FHhUy-Q9OWQWM8c3zRxM-25">
          <mxGeometry relative="1" as="geometry" />
        </mxCell>
      </root>
    </mxGraphModel>
  </diagram>
</mxfile>
